<svg version="1.1" viewBox="0.0 0.0 960.0 720.0" fill="none" stroke="none" stroke-linecap="square" stroke-miterlimit="10" xmlns:xlink="http://www.w3.org/1999/xlink" xmlns="http://www.w3.org/2000/svg"><clipPath id="p.0"><path d="m0 0l960.0 0l0 720.0l-960.0 0l0 -720.0z" clip-rule="nonzero"/></clipPath><g clip-path="url(#p.0)"><path fill="#000000" fill-opacity="0.0" d="m0 0l960.0 0l0 720.0l-960.0 0z" fill-rule="evenodd"/><path fill="#000000" fill-opacity="0.0" d="m208.3622 27.102362l543.27563 0l0 665.7953l-543.27563 0z" fill-rule="evenodd"/><path fill="#0000ff" d="m504.80298 552.89923q-61.34375 0 -103.484375 -23.1875q-42.125 -23.203125 -63.71875 -66.40625q-21.59375 -43.203125 -21.59375 -102.9375q0 -59.203125 21.859375 -102.65625q21.875 -43.46875 63.46875 -66.9375q41.59375 -23.46875 99.734375 -23.46875q32.0 0 62.65625 8.265625q30.671875 8.265625 56.8125 26.9375q9.0625 6.390625 10.390625 15.734375q1.34375 9.328125 -3.203125 17.59375q-4.53125 8.265625 -13.0625 11.203125q-8.53125 2.9375 -19.203125 -3.46875q-20.796875 -14.40625 -43.734375 -21.0625q-22.921875 -6.671875 -50.65625 -6.671875q-62.40625 0 -94.9375 37.609375q-32.53125 37.59375 -32.53125 106.921875q0 70.9375 33.328125 107.734375q33.34375 36.796875 100.0 36.796875q40.53125 0 80.53125 -13.328125l0 -100.796875l-68.796875 0q-22.921875 0 -22.921875 -21.34375q0 -20.265625 22.921875 -20.265625l92.265625 0q22.9375 0 22.9375 22.9375l0 134.40625q0 20.265625 -14.9375 26.125q-22.921875 9.0625 -53.859375 14.671875q-30.9375 5.59375 -60.265625 5.59375z" fill-rule="nonzero"/></g></svg>